<svg width="396px" height="92px" viewBox="0 0 396 92" version="1.1" xmlns="http://www.w3.org/2000/svg" xmlns:xlink="http://www.w3.org/1999/xlink">
    
    <title>citybanklogo_mortgage_lendar</title>
    <desc>Created with Sketch.</desc>
    <defs>
        <linearGradient x1="49.8987981%" y1="100.140144%" x2="49.8987981%" y2="-0.0430288462%" id="linearGradient-1">
            <stop stop-color="#ED1C24" offset="0%"></stop>
            <stop stop-color="#E81C23" offset="11.06%"></stop>
            <stop stop-color="#DE1A22" offset="22.12%"></stop>
            <stop stop-color="#CF181F" offset="33.2%"></stop>
            <stop stop-color="#BA131A" offset="44.22%"></stop>
            <stop stop-color="#A10C11" offset="54.4%"></stop>
            <stop stop-color="#ED1C24" offset="100%"></stop>
        </linearGradient>
        <linearGradient x1="49.8987981%" y1="-0.0430288462%" x2="49.8987981%" y2="100.51875%" id="linearGradient-2">
            <stop stop-color="#FFFFFF" offset="0%"></stop>
            <stop stop-color="#9F9C9C" offset="22.93%"></stop>
            <stop stop-color="#565353" offset="50.32%"></stop>
            <stop stop-color="#2D2B2B" offset="73.23%"></stop>
            <stop stop-color="#111111" offset="90.44%"></stop>
            <stop stop-color="#020202" offset="100%"></stop>
        </linearGradient>
        <linearGradient x1="50.0278997%" y1="99.1460815%" x2="50.0278997%" y2="-0.67460815%" id="linearGradient-3">
            <stop stop-color="#FFFFFF" offset="0%"></stop>
            <stop stop-color="#C7C8CA" offset="50%"></stop>
            <stop stop-color="#FFFFFF" offset="68.68%"></stop>
            <stop stop-color="#FFFFFF" offset="100%"></stop>
        </linearGradient>
    </defs>
    <g id="Page-1" stroke="none" stroke-width="1" fill="none" fill-rule="evenodd">
        <g id="citybanklogo_mortgage_lendar" transform="translate(-1.000000, 0.000000)" fill-rule="nonzero">
            <g id="Group" transform="translate(87.327010, 7.281858)" fill="#504948">
                <path d="M22.5594775,1.63841808 C13.462914,1.09227872 5.4579381,4.00502197 1.45545016,11.650973 C-0.54579381,16.5662273 -0.54579381,22.9378531 3.27476287,26.7608286 C5.4579381,29.309479 8.55076969,30.2197112 11.6436013,31.31199 C10.5520137,33.8606403 9.46042607,36.5913369 8.73270098,39.5040803 C7.27725081,46.239799 10.5520137,52.975518 15.1002955,56.0703075 C19.4666459,59.7112366 27.4716218,58.8010044 32.2018348,56.2523539 C38.7513607,52.2473322 43.4815736,46.7859386 42.7538485,39.1399875 C42.3899861,36.4092905 40.0248793,34.2247332 37.6597729,33.4965474 C34.3850102,32.5863151 30.7463847,33.3145009 28.3812782,35.3170119 C24.0149277,38.957941 23.4691339,45.8757061 25.2884466,51.1550532 C26.0161717,50.7909603 26.3800342,50.7909603 26.7438967,50.4268675 C26.925828,47.332078 27.6535531,44.2372881 28.7451407,41.5065912 C30.3825222,38.2297553 32.7476287,35.1349654 36.5681854,35.4990583 C37.8417044,35.6811047 38.7513607,36.5913369 39.4790858,37.6836159 C40.7526044,39.6861268 40.5706732,42.7809166 39.6610169,44.9654739 C36.5681854,51.3370997 31.8379723,55.1600753 25.2884466,56.2523539 C22.3775463,56.6164471 18.9208521,56.0703075 17.6473332,53.5216573 C16.9196081,51.5191461 16.7376769,49.6986817 16.9196081,47.332078 C17.8292645,41.6886376 20.0124397,36.2272441 23.2872026,31.6760828 C26.7438967,31.1299435 30.2005909,30.4017577 33.2934225,29.1274325 C40.7526044,26.0326428 50.9407556,21.4814815 54.0335875,11.4689265 C54.9432437,8.19209041 54.3974498,4.7332078 52.0323434,3.09478971 C48.7575803,1.27432517 44.5731614,2.36660389 41.4803295,3.64092905 C30.0186596,9.28436912 20.3763023,19.4789705 12.3713264,29.6735719 C10.9158762,29.309479 9.82428861,28.9453861 8.91463224,28.3992467 C6.36759447,27.4890144 4.73021302,24.5762712 4.54828176,21.6635279 C4.54828176,15.4739485 9.64235732,6.91776522 16.0099518,4.7332078 C18.7389208,3.64092905 22.5594775,3.82297553 25.4703779,3.82297553 C25.2884466,3.27683616 25.4703779,2.54865035 25.2884466,2.36660389 C24.3787902,1.82046453 23.4691339,1.63841808 22.5594775,1.63841808 Z M42.0261234,6.73571878 C44.0273675,4.55116132 47.4840617,2.7306968 50.5768932,4.55116132 C52.0323434,5.46139359 51.3046183,8.01004393 50.5768932,9.83050847 C47.4840617,17.1123666 40.7526044,22.5737602 35.1127353,25.6685499 C32.2018348,27.1249215 28.927072,28.3992467 25.2884466,28.9453861 C29.6547971,21.1173886 35.6585292,13.2893911 42.0261234,6.73571878 Z" id="Shape"></path>
                <path d="M47.6659929,39.3220339 C45.3008864,43.5091024 40.9345359,49.1525424 42.7538485,55.3421217 C43.2996424,56.6164471 44.3912298,57.8907722 45.6647488,58.2548651 C51.6684807,59.5291902 54.579381,54.7959824 57.8541441,50.9730068 C60.7650444,47.332078 64.0398071,42.2347773 67.6784325,37.8656624 C65.6771885,42.7809166 62.0385631,47.6961708 62.5843569,53.5216573 C62.5843569,55.3421217 64.0398071,57.3446329 65.4952573,57.8907722 C67.1326386,58.8010044 69.1338827,58.618958 70.5893329,57.8907722 C79.3220339,52.975518 83.6883844,41.1424983 91.3294976,34.0426868 C92.9668793,32.7683616 94.9681231,30.4017577 95.8777797,30.7658506 C95.8777797,30.7658506 96.7874359,30.9478971 95.6958481,32.0401758 C90.9656353,37.6836159 84.7799719,43.8731953 85.6896285,53.1575644 C86.0534908,55.1600753 87.3270098,56.7984936 88.9643912,57.5266793 C94.6042607,59.1650973 98.4248173,52.6114251 102.609237,48.2423102 C101.69958,50.4268675 99.5164047,55.3421217 98.4248173,57.5266793 C95.1500546,58.8010044 92.0572227,59.1650973 88.4185973,61.1676081 C84.4161095,63.3521658 80.7774841,65.9008159 77.5027214,69.1776522 C74.591821,72.272442 73.5002332,77.7338356 76.2292024,82.1029505 C77.1388586,83.559322 78.9581715,84.4695542 80.4136214,84.6516007 C85.3257658,85.0156936 90.7837041,84.4695542 95.3319858,78.2799749 C100.607993,70.0878844 103.336962,64.8085373 107.521381,56.7984936 C112.979319,54.4318895 117.163738,49.3345888 120.620432,44.601381 L117.709532,45.1475203 C115.344425,48.2423102 112.069663,51.8832393 108.976831,53.3396108 C112.979319,45.5116132 117.709532,37.3195231 122.075882,29.8556183 L122.257814,29.4915254 L112.251594,30.0376648 C106.975587,37.6836159 101.153786,47.6961708 94.6042607,53.8857502 C92.2391542,56.0703075 90.7837041,54.2498431 91.8752915,52.7934715 C95.1500546,46.9679851 97.6970922,43.3270559 100.971855,37.6836159 C102.791168,33.8606403 101.335718,31.1299435 98.9706112,29.6735719 C97.3332298,28.3992467 94.7861919,28.9453861 93.1488105,29.8556183 C86.5992847,34.2247332 82.4148654,42.0527308 77.6846525,48.4243566 C74.7737522,52.2473322 70.2254705,56.98054 68.9519515,55.888261 C67.8603637,55.1600753 68.7700203,54.4318895 69.3158139,52.975518 C73.8640959,43.3270559 78.0485149,36.4092905 83.1425905,27.306968 C84.2341783,25.8505964 84.4161095,25.304457 85.1438346,24.0301318 C86.9631471,24.0301318 90.7837041,24.3942247 93.3307417,24.3942247 C94.0584668,23.4839925 94.240398,22.9378531 94.6042607,22.2096673 C92.4210854,22.2096673 89.1463224,22.2096673 86.4173536,22.0276208 C87.3270098,20.3892027 88.4185973,18.3866918 89.3282539,16.7482737 C90.055979,15.655995 90.4198414,14.9278092 91.1475664,14.0175769 C88.4185973,14.1996234 83.8703156,14.1996234 80.9594153,14.3816698 C80.4136214,15.4739485 80.4136214,15.8380414 79.5039651,17.2944131 C74.2279583,28.0351538 65.85912,35.3170119 59.1276631,45.1475203 C57.126419,47.6961708 54.7613125,51.1550532 52.5781373,53.5216573 C51.3046183,54.6139359 49.4853054,56.4344003 48.5756492,55.888261 C47.6659929,55.3421217 49.1214431,52.7934715 48.5756492,53.8857502 C48.2117868,54.4318895 57.6722129,37.6836159 63.1301508,28.9453861 L62.5843569,28.9453861 C58.9457315,29.1274325 56.7625563,29.1274325 53.1239308,29.309479 L47.6659929,39.3220339 Z M85.1438346,80.8286251 C84.2341783,82.2849969 82.9606593,82.8311363 81.1413464,82.6490898 C80.2316902,82.4670434 79.1401027,82.2849969 78.5943088,81.3747647 C77.5027214,79.1902071 79.6858963,75.549278 81.323278,73.3647207 C85.5076969,68.26742 90.6017725,63.3521658 96.6055047,61.1676081 C96.7874359,61.1676081 86.235422,79.3722536 85.1438346,80.8286251 Z" id="Shape"></path>
                <path d="M189.936246,38.7758946 C189.572384,34.2247332 186.115689,30.5838041 182.477064,28.9453861 L182.477064,28.7633396 C187.935002,25.6685499 195.394184,22.2096673 194.848391,14.3816698 C195.030322,10.1946014 191.573628,6.73571878 188.662727,4.7332078 C189.754315,4.18706844 191.391697,3.64092905 192.665215,3.45888261 C192.301353,2.91274325 191.93749,2.36660389 191.209765,2.00251099 C189.572384,2.54865035 187.753071,3.09478971 186.297621,3.82297553 C183.022858,3.09478971 179.748095,2.00251099 176.473332,2.18455744 C175.381745,2.18455744 175.017882,2.18455744 173.926295,2.18455744 L172.652776,2.18455744 C164.829731,3.09478971 157.55248,4.7332078 151.366817,8.19209041 C144.817291,12.5612053 136.812315,19.1148776 138.449697,28.5812932 C139.177422,31.31199 141.360597,33.1324545 143.907635,33.8606403 C148.455917,34.952919 153.004198,33.3145009 156.642824,30.9478971 C162.464624,26.5787822 164.6478,17.4764595 162.646556,9.64846203 C162.100762,9.83050847 161.554968,9.83050847 161.009174,10.1946014 C160.645312,17.1123666 157.370549,22.9378531 152.640336,27.306968 C149.911367,29.1274325 147.54626,31.6760828 143.725704,31.1299435 C142.452185,30.7658506 140.996735,29.8556183 140.632872,28.3992467 C139.177422,23.1198996 142.270254,18.5687382 145.363085,14.9278092 C153.549992,7.28185814 164.102006,3.27683616 176.291401,3.45888261 C178.838439,3.27683616 181.021614,3.82297553 182.840927,5.09730068 C169.741875,11.8330195 163.556212,26.5787822 157.734412,39.6861268 C154.459648,46.239799 151.548748,53.8857502 144.271497,56.2523539 C140.087078,56.98054 136.08459,55.888261 134.083346,52.7934715 C133.719484,51.8832393 134.083346,50.7909603 134.62914,50.244821 C137.54004,49.3345888 141.72446,49.1525424 141.906391,45.1475203 C141.906391,43.5091024 141.360597,41.6886376 140.087078,40.7784054 C138.813559,39.5040803 136.448453,39.3220339 134.62914,39.8681732 C132.809827,40.7784054 131.354377,42.0527308 130.444721,44.2372881 C129.535064,47.332078 130.080858,51.1550532 131.900171,53.7037037 C134.62914,57.3446329 138.995491,58.618958 144.089566,58.2548651 C156.460893,57.7087258 165.557456,48.6064031 169.559944,37.1374766 C170.4696,34.4067797 170.4696,32.4042687 171.379257,29.6735719 C172.834707,32.4042687 177.382989,30.5838041 179.202301,29.6735719 C181.021614,30.9478971 181.385477,33.1324545 181.021614,35.6811047 C180.111958,42.9629631 177.019126,49.5166353 172.470844,54.6139359 C171.743119,55.3421217 170.833463,56.4344003 169.559944,56.0703075 C168.468356,55.7062146 167.740631,54.7959824 167.5587,53.5216573 C167.194838,48.2423102 171.015394,44.2372881 175.017882,41.8706844 L173.926295,40.7784054 C172.106982,41.5065912 171.015394,42.5988702 169.741875,43.6911488 C166.830975,46.9679851 164.6478,50.9730068 166.10325,55.3421217 C166.649044,56.6164471 167.740631,57.3446329 168.832219,57.8907722 C171.015394,58.8010044 175.381745,57.7087258 177.746851,56.6164471 C184.478308,53.5216573 190.48204,47.332078 189.936246,38.7758946 Z M178.474576,27.4890144 C176.291401,27.1249215 174.108226,27.306968 171.925051,28.0351538 C172.652776,24.2121783 174.108226,20.2071563 175.381745,16.9303201 C177.019126,13.1073446 181.203545,9.10232268 184.478308,6.37162586 C185.751827,7.64595105 185.933758,8.9202762 186.115689,10.3766478 C185.933758,17.2944131 183.750583,24.2121783 178.474576,27.4890144 Z" id="Shape"></path>
                <path d="M191.573628,45.8757061 C190.845903,48.9704959 190.845903,53.7037037 192.847147,56.2523539 C194.484528,58.0728186 196.849635,58.8010044 199.396672,58.618958 C202.671435,58.2548651 206.310061,54.7959824 208.857098,51.3370997 L208.857098,51.8832393 C209.03903,53.1575644 209.03903,54.0677966 209.402892,55.5241681 C209.766755,57.1625864 210.858342,58.4369115 212.131861,58.8010044 C218.499456,60.0753295 221.95615,54.7959824 225.230913,50.9730068 C230.324988,44.4193346 235.055201,37.8656624 241.240864,32.7683616 L241.422796,32.950408 C238.148033,41.6886376 233.41782,49.5166353 228.505676,57.5266793 C228.141813,57.8907722 227.777951,58.4369115 227.777951,58.9830508 C231.780439,58.8010044 234.509407,58.8010044 238.511896,58.8010044 C242.332452,51.5191461 247.972322,43.5091024 253.612191,37.3195231 C255.613435,35.3170119 257.614679,33.1324545 260.161717,32.4042687 C261.071373,32.4042687 260.889442,33.4965474 260.525579,33.8606403 C256.886954,39.3220339 252.520603,43.8731953 251.429016,50.4268675 C251.065153,53.3396108 251.610947,57.8907722 254.88571,58.8010044 C259.979785,60.0753295 263.072617,56.0703075 265.983517,53.1575644 L281.993469,32.5863151 C282.539263,32.0401758 282.903125,31.1299435 283.448919,30.9478971 C281.811538,33.6785939 280.174156,36.0451976 278.900638,38.957941 C275.262012,45.6936597 271.441456,51.7011929 267.80283,58.9830508 C271.077593,58.8010044 274.716218,58.9830508 277.80905,58.8010044 C287.633339,41.6886376 297.093765,23.8480854 307.463847,6.37162586 C308.009641,5.27934715 308.919297,4.36911488 309.28316,3.09478971 C305.826465,3.45888261 302.369772,3.64092905 299.095008,4.18706844 L296.547971,8.55618329 C292.363552,17.8405524 284.904369,25.4865035 278.900638,33.8606403 C273.442699,40.2322661 268.712486,46.9679851 263.618411,53.3396108 C261.981029,55.3421217 259.433992,57.5266793 258.160473,57.1625864 C257.614679,56.98054 256.705023,56.4344003 258.160473,54.7959824 C261.435236,50.244821 263.618411,46.9679851 266.165448,41.8706844 C268.166693,37.8656624 267.257036,33.8606403 265.073861,31.4940364 C263.800342,30.5838041 262.344892,29.8556183 260.525579,30.2197112 C254.521847,31.8581293 250.519359,38.4118017 246.33494,43.5091024 C247.244597,40.2322661 249.063909,37.5015695 248.336184,33.4965474 C247.972322,31.4940364 246.698803,30.4017577 245.061421,30.0376648 C243.605971,29.8556183 242.332452,30.0376648 241.058933,30.7658506 C237.056445,33.3145009 234.327476,37.3195231 231.234645,40.7784054 C228.141813,44.0552417 225.412844,48.4243566 222.138081,51.8832393 C220.318768,53.8857502 218.863318,56.2523539 216.316281,56.7984936 C215.770487,56.7984936 215.042762,56.4344003 215.770487,54.7959824 C219.954906,46.6038919 223.957394,39.3220339 229.233401,30.7658506 C225.776706,31.1299435 222.683875,30.9478971 219.227181,31.31199 C218.863318,31.8581293 218.317524,33.1324545 217.589799,33.8606403 L217.407868,33.4965474 C216.316281,30.7658506 213.769243,29.8556183 211.040274,29.8556183 C205.582336,30.5838041 201.034054,33.3145009 197.031566,36.9554302 C194.302597,38.7758946 192.301353,42.9629631 191.573628,45.8757061 Z M211.767999,42.4168237 C209.220961,47.1500315 206.491992,51.5191461 202.125641,55.1600753 C200.852122,56.0703075 199.578604,56.98054 197.759291,56.4344003 C196.849635,56.0703075 197.213497,54.4318895 197.57736,53.5216573 C199.760535,47.5141244 203.217229,42.7809166 206.855855,37.3195231 C208.493236,35.4990583 209.766755,33.1324545 211.94993,32.2222222 C213.041518,31.8581293 213.951174,32.2222222 214.496968,32.950408 C215.770487,36.0451976 213.223449,39.5040803 211.767999,42.4168237 Z" id="Shape"></path>
                <path d="M302.551703,30.0376648 C296.36604,31.4940364 295.274452,39.8681732 288.542995,40.4143125 C288.179132,40.7784054 288.179132,41.1424983 287.81527,41.6886376 C288.361064,41.8706844 289.088789,41.8706844 289.452651,42.0527308 C290.362307,42.2347773 290.72617,42.9629631 290.544239,43.5091024 C289.27072,46.4218454 287.269476,49.1525424 286.541751,52.6114251 C286.177888,54.7959824 286.541751,56.98054 288.179132,58.2548651 C289.27072,59.3471437 291.635826,59.3471437 293.273208,58.8010044 C298.913077,56.98054 303.097497,50.9730068 306.554191,45.8757061 L304.371015,45.5116132 C302.369772,48.6064031 300.73239,50.244821 298.731146,52.7934715 C297.639558,53.8857502 296.729902,54.9780288 295.274452,55.1600753 C293.819002,55.1600753 296.547971,50.9730068 297.093765,48.7884495 C298.549215,44.7834275 297.639558,42.2347773 293.637071,40.7784054 C295.092521,39.6861268 296.36604,37.8656624 297.457627,36.4092905 C298.731146,35.1349654 300.368527,32.950408 302.18784,32.2222222 C301.278184,33.1324545 300.368527,34.7708725 301.096253,36.4092905 C301.460115,37.6836159 302.733634,38.4118017 304.007153,38.5938481 C305.280672,38.5938481 306.372259,38.2297553 307.281916,37.3195231 C308.191572,36.0451976 308.373503,33.8606403 307.463847,32.0401758 C306.554191,30.5838041 304.734878,29.6735719 302.551703,30.0376648 Z" id="Shape"></path>
                <path d="M66.0410512,22.3917138 C64.2217383,24.7583176 61.1289068,25.4865035 59.3095942,24.0301318 C57.4902814,22.5737602 57.6722129,19.4789705 59.4915254,17.1123666 C61.310838,14.7457627 64.4036698,14.0175769 66.2229824,15.4739485 C67.8603637,16.9303201 67.8603637,20.0251099 66.0410512,22.3917138 Z" id="Shape"></path>
            </g>
            <g id="Group">
                <path d="M65.1313949,0.546139359 L13.462914,0.546139359 C6.73145702,0.546139359 1.45545016,6.00753295 1.45545016,12.5612053 L1.45545016,64.262398 C1.45545016,70.9981166 6.91338827,76.2774641 13.462914,76.2774641 L65.1313949,76.2774641 C71.8628519,76.2774641 77.1388586,70.8160702 77.1388586,64.262398 L77.1388586,12.5612053 C77.1388586,5.82548651 71.6809207,0.546139359 65.1313949,0.546139359" id="Shape" fill="url(#linearGradient-1)"></path>
                <path d="M65.1313949,0.546139359 L13.462914,0.546139359 C6.73145702,0.546139359 1.45545016,6.00753295 1.45545016,12.5612053 L1.45545016,64.262398 C1.45545016,70.9981166 6.91338827,76.2774641 13.462914,76.2774641 L65.1313949,76.2774641 C71.8628519,76.2774641 77.1388586,70.8160702 77.1388586,64.262398 L77.1388586,12.5612053 C77.1388586,5.82548651 71.6809207,0.546139359 65.1313949,0.546139359 Z M76.4111336,64.262398 C76.4111336,70.6340237 71.317058,75.549278 64.9494634,75.7313244 L13.2809827,75.7313244 C6.91338827,75.7313244 2.00124397,70.6340237 2.00124397,64.262398 L2.00124397,12.5612053 C2.00124397,6.18957942 7.09531956,1.27432517 13.2809827,1.09227872 L64.9494634,1.09227872 C71.317058,1.09227872 76.2292024,6.18957942 76.4111336,12.5612053 L76.4111336,64.262398 Z" id="Shape" fill="url(#linearGradient-2)" opacity="0.9"></path>
                <path d="M65.1313949,0.546139359 L13.462914,0.546139359 C6.73145702,0.546139359 1.45545016,6.00753295 1.45545016,12.5612053 L1.45545016,32.0401758 C13.2809827,36.5913369 26.0161717,38.957941 39.2971546,38.957941 C52.5781373,38.957941 65.4952573,36.4092905 77.1388586,32.0401758 L77.1388586,12.5612053 C77.1388586,5.82548651 71.6809207,0.546139359 65.1313949,0.546139359 Z" id="Shape" fill="#F9AE9C" opacity="0.85"></path>
                <path d="M66.0410512,43.8731953 L68.2242264,44.4193346 L68.2242264,34.4067797 L66.0410512,34.952919 C65.6771885,33.1324545 65.3133261,31.4940364 64.7675322,29.8556183 L66.9507075,29.1274325 L62.0385631,20.3892027 L60.4011817,22.0276208 C59.3095942,20.7532957 58.0360753,19.4789705 56.7625563,18.3866918 L58.399938,16.7482737 L49.6672369,11.650973 L48.9395119,13.8355304 C47.3021302,13.2893911 45.6647488,12.7432517 43.8454363,12.5612053 L44.3912298,10.3766478 L34.3850102,10.3766478 L34.9308041,12.5612053 C33.1114912,12.9252982 31.4741098,13.2893911 29.8367283,13.8355304 L29.1090033,11.650973 L20.3763023,16.7482737 L22.0136837,18.3866918 C20.7401648,19.4789705 19.4666459,20.7532957 18.3750583,22.0276208 L16.7376769,20.3892027 L11.6436013,29.1274325 L13.8267765,29.8556183 C13.2809827,31.4940364 12.7351889,33.1324545 12.5532577,34.952919 L10.3700824,34.4067797 L10.3700824,44.4193346 L12.5532577,43.8731953 C12.9171202,45.6936597 13.2809827,47.332078 13.8267765,48.9704959 L11.6436013,49.6986817 L16.7376769,58.4369115 L18.3750583,56.7984936 C19.4666459,58.0728186 20.7401648,59.3471437 22.0136837,60.4394224 L20.3763023,62.0778407 L29.1090033,66.9930949 L29.8367283,64.8085373 C31.4741098,65.3546766 33.1114912,65.9008159 34.9308041,66.0828624 L34.3850102,68.26742 L44.3912298,68.26742 L43.8454363,66.0828624 C45.6647488,65.7187695 47.3021302,65.3546766 48.9395119,64.8085373 L49.6672369,66.9930949 L58.399938,61.8957942 L56.7625563,60.2573759 C58.0360753,59.1650973 59.3095942,57.8907722 60.4011817,56.6164471 L62.0385631,58.2548651 L66.9507075,49.5166353 L64.7675322,48.7884495 C65.1313949,47.332078 65.6771885,45.5116132 66.0410512,43.8731953 Z M55.3071061,19.6610169 C56.5806251,20.7532957 57.8541441,22.0276208 58.9457315,23.301946 L49.8491681,32.0401758 C48.9395119,30.7658506 47.8479241,29.6735719 46.5744051,28.7633396 L55.3071061,19.6610169 Z M43.2996424,14.1996234 C44.9370237,14.3816698 46.7563366,14.9278092 48.2117868,15.4739485 L44.7550925,27.6710609 C43.4815736,26.9428751 41.8441922,26.5787822 40.388742,26.3967357 L43.2996424,14.1996234 Z M40.0248793,28.0351538 C41.4803295,28.2172002 42.9357797,28.5812932 44.2092986,29.1274325 L43.6635047,30.7658506 L44.2092986,31.1299435 L45.3008864,29.8556183 C46.5744051,30.7658506 47.6659929,31.8581293 48.393718,32.950408 L47.120199,34.0426868 L47.4840617,34.5888261 L49.1214431,34.0426868 C49.8491681,35.3170119 50.2130305,36.7733834 50.2130305,38.2297553 L40.0248793,38.2297553 L40.0248793,28.0351538 Z M35.1127353,14.1996234 L38.0236356,26.3967357 C36.3862542,26.5787822 34.9308041,26.9428751 33.657285,27.6710609 L30.0186596,15.4739485 C31.8379723,14.9278092 33.4753538,14.5637163 35.1127353,14.1996234 Z M23.1052714,19.6610169 L31.8379723,28.7633396 C30.5644534,29.6735719 29.4728658,30.7658506 28.5632095,32.0401758 L19.4666459,23.301946 C20.5582336,21.8455744 21.8317524,20.7532957 23.1052714,19.6610169 Z M15.464158,30.4017577 L27.6535531,34.0426868 C26.925828,35.3170119 26.5619655,36.9554302 26.3800342,38.4118017 L14.1906391,35.4990583 C14.3725704,33.4965474 14.7364329,31.8581293 15.464158,30.4017577 Z M15.464158,48.4243566 C14.9183642,46.7859386 14.3725704,45.1475203 14.1906391,43.5091024 L26.3800342,40.596359 C26.5619655,42.2347773 26.925828,43.6911488 27.6535531,44.9654739 L15.464158,48.4243566 Z M23.1052714,59.1650973 C21.8317524,58.0728186 20.5582336,56.7984936 19.4666459,55.5241681 L28.5632095,46.7859386 C29.4728658,48.0602637 30.5644534,49.1525424 31.8379723,50.0627746 L23.1052714,59.1650973 Z M35.1127353,64.4444444 C33.4753538,64.0803515 31.6560411,63.7162586 30.2005909,63.1701193 L33.8392163,50.9730068 C35.1127353,51.7011929 36.7501166,52.0652858 38.2055668,52.2473322 L35.1127353,64.4444444 Z M38.387498,50.6089139 C36.9320478,50.4268675 35.4765976,50.0627746 34.203079,49.5166353 L34.7488725,47.8782173 L34.203079,47.5141244 L33.1114912,48.7884495 C31.8379723,47.8782173 30.7463847,46.7859386 30.0186596,45.6936597 L31.2921785,44.601381 L30.928316,44.0552417 L29.2909345,44.601381 C28.5632095,43.3270559 28.1993469,41.8706844 28.1993469,40.4143125 L38.7513607,40.4143125 L38.7513607,50.6089139 L38.387498,50.6089139 Z M38.387498,38.5938481 L27.8354844,38.5938481 C28.0174156,37.1374766 28.3812782,35.6811047 28.927072,34.4067797 L30.5644534,34.952919 L30.928316,34.4067797 L29.6547971,33.3145009 C30.5644534,32.0401758 31.6560411,30.9478971 32.7476287,30.2197112 L33.8392163,31.4940364 L34.3850102,31.1299435 L33.8392163,29.4915254 C35.1127353,28.7633396 36.5681854,28.3992467 38.0236356,28.3992467 L38.0236356,38.5938481 L38.387498,38.5938481 Z M40.0248793,40.2322661 L50.5768932,40.2322661 C50.394962,41.6886376 50.0310993,43.1450095 49.4853054,44.4193346 L47.8479241,43.8731953 L47.4840617,44.4193346 L48.7575803,45.5116132 C47.8479241,46.7859386 46.7563366,47.8782173 45.6647488,48.6064031 L44.5731614,47.332078 L44.0273675,47.6961708 L44.5731614,49.3345888 C43.2996424,50.0627746 41.8441922,50.4268675 40.388742,50.4268675 L40.388742,40.2322661 L40.0248793,40.2322661 Z M43.2996424,64.4444444 L40.388742,52.2473322 C42.0261234,52.0652858 43.4815736,51.7011929 44.7550925,50.9730068 L48.393718,63.1701193 C46.7563366,63.7162586 44.9370237,64.262398 43.2996424,64.4444444 Z M55.3071061,59.1650973 L46.5744051,50.0627746 C47.8479241,49.1525424 48.9395119,48.0602637 49.8491681,46.7859386 L58.9457315,55.5241681 C57.8541441,56.7984936 56.5806251,58.0728186 55.3071061,59.1650973 Z M62.9482197,48.4243566 L50.7588244,44.7834275 C51.4865495,43.5091024 51.8504122,41.8706844 51.8504122,40.4143125 L64.2217383,43.3270559 C64.0398071,45.1475203 63.6759447,46.7859386 62.9482197,48.4243566 Z M52.0323434,38.2297553 C51.8504122,36.5913369 51.4865495,35.1349654 50.9407556,33.8606403 L63.1301508,30.2197112 C63.6759447,31.8581293 64.2217383,33.4965474 64.4036698,35.1349654 L52.0323434,38.2297553 Z" id="Shape" fill="#670000"></path>
                <path d="M66.0410512,43.1450095 L68.2242264,43.6911488 L68.2242264,33.6785939 L66.0410512,34.2247332 C65.6771885,32.4042687 65.3133261,30.7658506 64.7675322,29.1274325 L66.9507075,28.3992467 L61.8566319,20.0251099 L60.2192505,21.6635279 C59.1276631,20.3892027 57.8541441,19.1148776 56.5806251,18.0225989 L58.2180064,16.3841808 L49.4853054,11.2868801 L48.7575803,13.4714375 C47.120199,12.9252982 45.4828176,12.3791588 43.6635047,12.1971124 L44.2092986,10.0125549 L34.203079,10.0125549 L34.7488725,12.1971124 C32.9295599,12.5612053 31.2921785,12.9252982 29.6547971,13.4714375 L28.927072,11.2868801 L20.194371,16.3841808 L21.8317524,18.0225989 C20.5582336,19.1148776 19.2847147,20.3892027 18.1931271,21.6635279 L16.5557456,20.0251099 L11.46167,28.7633396 L13.6448453,29.4915254 C13.0990515,31.1299435 12.5532577,32.7683616 12.3713264,34.5888261 L10.1881512,34.0426868 L10.1881512,44.0552417 L12.3713264,43.5091024 C12.7351889,45.3295668 13.0990515,46.9679851 13.6448453,48.6064031 L11.46167,49.3345888 L16.5557456,58.0728186 L18.1931271,56.4344003 C19.2847147,57.7087258 20.5582336,58.9830508 21.8317524,60.0753295 L20.194371,61.7137478 L28.927072,66.8110485 L29.6547971,64.6264908 C31.2921785,65.1726302 32.9295599,65.7187695 34.7488725,65.9008159 L34.203079,68.0853736 L44.2092986,68.0853736 L43.6635047,65.5367231 C45.4828176,65.1726302 47.120199,64.8085373 48.7575803,64.262398 L49.4853054,66.4469556 L58.2180064,61.3496546 L56.5806251,59.7112366 C57.8541441,58.618958 59.1276631,57.3446329 60.2192505,56.0703075 L61.8566319,57.7087258 L66.7687763,48.9704959 L64.585601,48.2423102 C65.1313949,46.6038919 65.6771885,44.9654739 66.0410512,43.1450095 Z M55.3071061,19.1148776 C56.5806251,20.2071563 57.8541441,21.4814815 58.9457315,22.7558066 L49.8491681,31.4940364 C48.9395119,30.2197112 47.8479241,29.1274325 46.5744051,28.2172002 L55.3071061,19.1148776 Z M43.2996424,13.653484 C44.9370237,14.0175769 46.7563366,14.3816698 48.2117868,14.9278092 L44.7550925,27.1249215 C43.4815736,26.3967357 41.8441922,26.0326428 40.388742,25.8505964 L43.2996424,13.653484 Z M40.0248793,27.4890144 C41.4803295,27.6710609 42.9357797,28.0351538 44.2092986,28.5812932 L43.6635047,30.2197112 L44.2092986,30.5838041 L45.3008864,29.309479 C46.5744051,30.2197112 47.6659929,31.31199 48.393718,32.4042687 L47.120199,33.4965474 L47.4840617,34.0426868 L49.1214431,33.6785939 C49.8491681,34.952919 50.2130305,36.4092905 50.2130305,37.8656624 L40.0248793,37.8656624 L40.0248793,27.4890144 Z M35.1127353,13.653484 L38.0236356,25.8505964 C36.3862542,26.0326428 34.9308041,26.3967357 33.657285,27.1249215 L30.0186596,14.9278092 C31.8379723,14.3816698 33.4753538,13.8355304 35.1127353,13.653484 Z M23.1052714,18.9328312 L31.8379723,28.0351538 C30.5644534,28.9453861 29.4728658,30.0376648 28.5632095,31.31199 L19.4666459,22.5737602 C20.5582336,21.299435 21.8317524,20.0251099 23.1052714,18.9328312 Z M15.464158,29.6735719 L27.6535531,33.3145009 C26.925828,34.5888261 26.5619655,36.2272441 26.3800342,37.6836159 L14.1906391,34.7708725 C14.3725704,32.950408 14.7364329,31.31199 15.464158,29.6735719 Z M15.464158,47.8782173 C14.9183642,46.239799 14.3725704,44.601381 14.1906391,42.9629631 L26.3800342,40.0502197 C26.5619655,41.6886376 26.925828,43.1450095 27.6535531,44.4193346 L15.464158,47.8782173 Z M23.1052714,58.4369115 C21.8317524,57.3446329 20.5582336,56.0703075 19.4666459,54.7959824 L28.5632095,46.0577525 C29.4728658,47.332078 30.5644534,48.4243566 31.8379723,49.3345888 L23.1052714,58.4369115 Z M35.1127353,63.8983051 C33.4753538,63.5342122 31.6560411,63.1701193 30.2005909,62.62398 L33.8392163,50.4268675 C35.1127353,51.1550532 36.7501166,51.5191461 38.2055668,51.7011929 L35.1127353,63.8983051 Z M38.387498,50.0627746 C36.9320478,49.8807281 35.4765976,49.5166353 34.203079,48.9704959 L34.7488725,47.332078 L34.203079,46.9679851 L33.1114912,48.2423102 C31.8379723,47.332078 30.7463847,46.239799 30.0186596,45.1475203 L31.2921785,44.0552417 L30.928316,43.5091024 L29.2909345,44.0552417 C28.5632095,42.7809166 28.1993469,41.3245447 28.1993469,39.8681732 L38.7513607,39.8681732 L38.7513607,50.0627746 L38.387498,50.0627746 Z M38.387498,38.0477088 L27.8354844,38.0477088 C28.0174156,36.5913369 28.3812782,35.1349654 28.927072,33.8606403 L30.5644534,34.4067797 L30.928316,33.8606403 L29.6547971,32.7683616 C30.5644534,31.4940364 31.6560411,30.4017577 32.7476287,29.6735719 L33.8392163,30.9478971 L34.3850102,30.5838041 L33.8392163,28.9453861 C35.1127353,28.2172002 36.5681854,27.8531074 38.0236356,27.8531074 L38.0236356,38.0477088 L38.387498,38.0477088 Z M40.0248793,39.5040803 L50.5768932,39.5040803 C50.394962,40.9604519 50.0310993,42.4168237 49.4853054,43.6911488 L47.8479241,43.1450095 L47.4840617,43.6911488 L48.7575803,44.7834275 C47.8479241,46.0577525 46.7563366,47.1500315 45.6647488,47.8782173 L44.5731614,46.6038919 L44.0273675,46.9679851 L44.5731614,48.6064031 C43.2996424,49.3345888 41.8441922,49.6986817 40.388742,49.6986817 L40.388742,39.5040803 L40.0248793,39.5040803 Z M43.2996424,63.8983051 L40.388742,51.7011929 C42.0261234,51.5191461 43.4815736,51.1550532 44.7550925,50.4268675 L48.393718,62.62398 C46.7563366,63.1701193 44.9370237,63.7162586 43.2996424,63.8983051 Z M55.3071061,58.4369115 L46.5744051,49.3345888 C47.8479241,48.4243566 48.9395119,47.332078 49.8491681,46.0577525 L58.9457315,54.7959824 C57.8541441,56.2523539 56.5806251,57.3446329 55.3071061,58.4369115 Z M62.9482197,47.8782173 L50.7588244,44.2372881 C51.4865495,42.9629631 51.8504122,41.3245447 51.8504122,39.8681732 L64.2217383,42.7809166 C64.0398071,44.601381 63.6759447,46.239799 62.9482197,47.8782173 Z M52.0323434,37.6836159 C51.8504122,36.0451976 51.4865495,34.5888261 50.9407556,33.3145009 L63.1301508,29.6735719 C63.6759447,31.31199 64.2217383,32.950408 64.4036698,34.5888261 L52.0323434,37.6836159 Z" id="Shape" fill="url(#linearGradient-3)"></path>
            </g>
        </g>
    </g>
</svg>